<?xml version="1.0" encoding="UTF-8"?><svg id="Layer_3" xmlns="http://www.w3.org/2000/svg" viewBox="0 0 250 250"><defs><style>.cls-1{stroke-width:14.82px;}.cls-1,.cls-2,.cls-3{fill:none;stroke:#7b8092;stroke-linecap:round;stroke-linejoin:round;}.cls-2{stroke-width:14px;}.cls-3{stroke-width:12px;}.cls-4{fill:#7b8092;}</style></defs><path class="cls-2" d="m48.28,49.82c-1.51,4.97-2.33,10.25-2.33,15.71,0,8.93,2.2,17.33,6.04,24.74h-.03s18.11,35.81,18.11,35.81v50.14l-50.37,11.48c-5.68,1.3-9.72,6.35-9.72,12.18v38.44"/><path class="cls-2" d="m190.21,238.33v-38.44c0-5.83-4.03-10.88-9.72-12.18l-50.37-11.48v-36.46h22.06v-37.36h13.15l-12.52-27.32c1.13-6.33,1.23-13.03-.2-19.96-5.18-25.19-27.76-43.77-53.48-43.45-4.73.06-9.31.73-13.68,1.93"/><circle class="cls-4" cx="62.68" cy="28.75" r="7.25"/><circle class="cls-4" cx="210.6" cy="73.31" r="7.25"/><circle class="cls-4" cx="232.75" cy="183.66" r="7.25"/><path class="cls-3" d="m151.81,118.13h-37.03c-8.77,0-15.89,7.11-15.89,15.89v104.31"/><line class="cls-1" x1="203.1" y1="117.74" x2="226.75" y2="117.74"/><line class="cls-1" x1="188.77" y1="139.68" x2="214.61" y2="165.53"/><line class="cls-1" x1="188.77" y1="95.14" x2="196.34" y2="87.58"/></svg>