<?xml version="1.0" encoding="UTF-8"?><svg id="Layer_3" xmlns="http://www.w3.org/2000/svg" viewBox="0 0 250 250"><defs><style>.cls-1{stroke-width:12px;}.cls-1,.cls-2,.cls-3{fill:none;stroke:#7b8092;stroke-linecap:round;stroke-linejoin:round;}.cls-2{stroke-width:8px;}.cls-3{stroke-width:15px;}</style></defs><path class="cls-3" d="m187.36,18.08H29.49c-10.76,0-19.49,8.72-19.49,19.49v174.86c0,10.76,8.72,19.49,19.49,19.49h191.02c10.76,0,19.49-8.72,19.49-19.49V70.72l-52.64-52.64Z"/><path class="cls-1" d="m187.36,51.24c0,10.76,8.72,19.49,19.49,19.49h33.15l-52.64-52.64v33.15Z"/><line class="cls-2" x1="121.09" y1="60.94" x2="158.38" y2="60.94"/><line class="cls-2" x1="121.09" y1="83.48" x2="158.38" y2="83.48"/><line class="cls-2" x1="121.09" y1="106.01" x2="210.98" y2="106.01"/><line class="cls-2" x1="38.71" y1="128.54" x2="210.98" y2="128.54"/><line class="cls-2" x1="38.71" y1="151.08" x2="210.98" y2="151.08"/><line class="cls-2" x1="38.71" y1="173.61" x2="210.98" y2="173.61"/><line class="cls-2" x1="38.71" y1="196.14" x2="210.98" y2="196.14"/><rect class="cls-1" x="42.42" y="57.3" width="52.12" height="44.72"/></svg>