<?xml version="1.0" encoding="UTF-8"?><svg id="Layer_3" xmlns="http://www.w3.org/2000/svg" viewBox="0 0 250 250"><defs><style>.cls-1{fill:#7b8092;}.cls-2{fill:none;stroke:#7b8092;stroke-linecap:round;stroke-linejoin:round;stroke-width:15px;}</style></defs><circle class="cls-1" cx="37.5" cy="212.5" r="8.1"/><path class="cls-2" d="m223.01,125.27c17.91-17.91,21.51-45.12,11.51-69.07l-35.29,35.29c-6.86,6.86-17.97,6.86-24.83,0l-15.37-15.37c-6.86-6.86-6.86-17.97,0-24.83l35.51-35.51c-24.12-10.38-51.71-6.89-69.8,11.2-18.93,18.93-21.88,48.26-9.67,73.14L18.69,191.8c-11.38,10.83-11.61,28.9-.5,40.01h0c11.11,11.11,29.18,10.88,40.01-.5l91.68-96.38c24.88,12.21,54.21,9.26,73.14-9.67Z"/></svg>