<?xml version="1.0" encoding="UTF-8"?><svg id="Layer_3" xmlns="http://www.w3.org/2000/svg" viewBox="0 0 250 250"><defs><style>.cls-1,.cls-2,.cls-3,.cls-4,.cls-5{stroke:#7b8092;}.cls-1,.cls-2,.cls-4,.cls-5{stroke-miterlimit:10;}.cls-1,.cls-3,.cls-5{fill:none;}.cls-1,.cls-4{stroke-width:15px;}.cls-2,.cls-3,.cls-5{stroke-linecap:round;stroke-width:10.06px;}.cls-2,.cls-4{fill:#fff;}.cls-3{stroke-linejoin:round;}</style></defs><path class="cls-1" d="m231.94,101.96c0-23.74-19.24-42.98-42.98-42.98-1.1,0-2.17.08-3.25.16-.64-27.24-22.88-49.14-50.27-49.14-19.43,0-36.25,11.03-44.64,27.14-1.31-.12-2.63-.2-3.97-.2-22.91,0-41.47,18.57-41.47,41.47,0,1.14.08,2.25.17,3.37-8.06,6.51-13.23,16.46-13.23,27.63,0,19.62,15.9,35.52,35.52,35.52h121.15c1.23,0,2.44-.06,3.63-.18,22.03-1.85,39.35-20.29,39.35-42.8Z"/><path class="cls-4" d="m217.71,140.52c0-23.74-19.24-42.98-42.98-42.98-1.1,0-2.17.08-3.25.16-.64-27.24-22.88-49.14-50.27-49.14-19.43,0-36.25,11.03-44.64,27.14-1.31-.12-2.63-.2-3.97-.2-22.91,0-41.47,18.57-41.47,41.47,0,1.14.08,2.25.17,3.37-8.06,6.51-13.23,16.46-13.23,27.63,0,19.62,15.9,35.52,35.52,35.52h121.15c1.23,0,2.44-.06,3.63-.18,22.03-1.85,39.35-20.29,39.35-42.8Z"/><path class="cls-5" d="m84.21,111.97c4.69-15.44,16.82-26.44,31.04-26.44,15.43,0,28.39,12.95,32.07,30.47"/><path class="cls-5" d="m146.92,138.07c-4.14,16.64-16.76,28.75-31.67,28.75s-27.97-12.54-31.89-29.64"/><polyline class="cls-3" points="152.47 96.68 147.31 116 128 110.84"/><polyline class="cls-3" points="78.2 156.49 83.36 137.18 102.67 142.34"/><line class="cls-3" x1="117.89" y1="183.55" x2="117.89" y2="202.11"/><polyline class="cls-3" points="70.19 217.22 70.19 201.89 165.58 201.89 165.58 217.22"/><circle class="cls-2" cx="165.58" cy="227.91" r="12.09"/><circle class="cls-2" cx="70.19" cy="227.91" r="12.09"/></svg>