<?xml version="1.0" encoding="UTF-8"?><svg id="Layer_3" xmlns="http://www.w3.org/2000/svg" viewBox="0 0 250 250"><defs><style>.cls-1{stroke-width:12px;}.cls-1,.cls-2{fill:none;stroke:#7b8092;stroke-linecap:round;stroke-linejoin:round;}.cls-3{fill:#7b8092;}.cls-2{stroke-width:15px;}</style></defs><polygon class="cls-2" points="174.69 138 10.55 138 25.79 240 159.45 240 174.69 138"/><circle class="cls-2" cx="92.62" cy="189" r="14.84"/><path class="cls-1" d="m62.74,98.76h59.77c16.91,0,30.63,13.72,30.63,30.63v8.61H32.11v-8.61c0-16.91,13.72-30.63,30.63-30.63Z"/><rect class="cls-1" x="54.85" y="10" width="72.07" height="88.86" rx="35.74" ry="35.74"/><path class="cls-1" d="m90.88,10c-11.89,0-22.39,5.78-28.96,14.66,5.55,8.49,14.87,17.15,25,17.15h39.73c-2.1-17.91-17.3-31.81-35.77-31.81Z"/><circle class="cls-3" cx="199.88" cy="47.31" r="6.97"/><path class="cls-2" d="m227.49,63.02c2.55-4.41,6.87-8.67,11.67-11.05.18-1.53.3-3.09.3-4.67s-.1-2.98-.27-4.45c-4.95-2.38-9.23-7-11.9-11.6-2.54-4.4-4.07-10.26-3.73-15.61-2.43-1.82-5.05-3.38-7.87-4.61-4.53,3.1-10.68,4.5-16,4.5s-10.96-1.62-15.42-4.6c-2.82,1.21-5.45,2.77-7.89,4.58.4,5.46-1.45,11.47-4.1,16.07-2.55,4.41-6.87,8.66-11.67,11.05-.18,1.53-.3,3.09-.3,4.67s.1,2.98.27,4.45c4.94,2.38,9.23,7,11.89,11.6,2.54,4.4,4.07,10.26,3.73,15.61,2.43,1.82,5.05,3.39,7.87,4.61,4.53-3.1,10.68-4.5,16-4.5s10.96,1.62,15.42,4.6c2.82-1.21,5.45-2.77,7.89-4.58-.4-5.46,1.45-11.47,4.1-16.07Z"/></svg>