<?xml version="1.0" encoding="UTF-8"?><svg id="Layer_3" xmlns="http://www.w3.org/2000/svg" viewBox="0 0 250 250"><defs><style>.cls-1{fill:#7b8092;}</style></defs><path class="cls-1" d="m124.98,161.12c-13.66,0-24.77-11.11-24.77-24.77s11.11-24.77,24.77-24.77,24.77,11.11,24.77,24.77-11.11,24.77-24.77,24.77Zm0-42.57c-9.82,0-17.8,7.99-17.8,17.8s7.99,17.8,17.8,17.8,17.8-7.99,17.8-17.8-7.99-17.8-17.8-17.8Z"/><path class="cls-1" d="m159.33,228.45h-68.66c-1.92,0-3.48-1.56-3.48-3.48v-38.97c0-10.64,8.65-19.29,19.29-19.29h37.05c10.64,0,19.29,8.65,19.29,19.29v38.97c0,1.92-1.56,3.48-3.48,3.48Zm-65.18-6.97h61.7v-35.48c0-6.8-5.53-12.32-12.32-12.32h-37.05c-6.8,0-12.32,5.53-12.32,12.32v35.48Z"/><path class="cls-1" d="m109.84,227.44c-1.92,0-3.48-1.56-3.48-3.48v-23.89c0-1.92,1.56-3.48,3.48-3.48s3.48,1.56,3.48,3.48v23.89c0,1.92-1.56,3.48-3.48,3.48Z"/><path class="cls-1" d="m140.15,227.44c-1.92,0-3.48-1.56-3.48-3.48v-23.89c0-1.92,1.56-3.48,3.48-3.48s3.48,1.56,3.48,3.48v23.89c0,1.92-1.56,3.48-3.48,3.48Z"/><path class="cls-1" d="m37.3,102.38l8.73,134.78-15.01,1.05-8.73-134.78,15.01-1.05m-22.32,1.52l9.24,142.09,29.56-2.07-9.22-142.19h0"/><path class="cls-1" d="m227.75,103.32l-8.31,128.72-15.01-1.05,8.33-128.69m0,0-7.12-.46h0l-8.96,135.92,29.56,2.07,8.77-135.93"/><rect class="cls-1" x="1.61" y="221.15" width="246.78" height="28.85" rx="3.77" ry="3.77"/><path class="cls-1" d="m125,6.97c36.66,0,73.78,1.37,110.35,4.08l-6.72,85.38c-34.38-2.53-69.21-3.82-103.63-3.82s-69.25,1.28-103.63,3.82L14.65,11.04c36.56-2.71,73.69-4.08,110.35-4.08M125,0C87.86,0,50.72,1.38,13.66,4.13c-3.59.27-6.27,3.41-5.99,7,2.43,30.92,4.87,61.85,7.3,92.77,36.62-2.88,73.32-4.32,110.03-4.32s73.41,1.44,110.03,4.32c2.43-30.92,4.87-61.85,7.3-92.77.28-3.59-2.4-6.73-5.99-7C199.28,1.38,162.14,0,125,0h0Z"/><path class="cls-1" d="m89.91,36.71h-50.26c-1.92,0-3.48-1.56-3.48-3.48s1.56-3.48,3.48-3.48h50.26c1.92,0,3.48,1.56,3.48,3.48s-1.56,3.48-3.48,3.48Z"/><path class="cls-1" d="m210.35,36.71h-28.45c-1.92,0-3.48-1.56-3.48-3.48s1.56-3.48,3.48-3.48h28.45c1.92,0,3.48,1.56,3.48,3.48s-1.56,3.48-3.48,3.48Z"/><path class="cls-1" d="m166.49,36.71h-61.17c-1.92,0-3.48-1.56-3.48-3.48s1.56-3.48,3.48-3.48h61.17c1.92,0,3.48,1.56,3.48,3.48s-1.56,3.48-3.48,3.48Z"/><path class="cls-1" d="m146.34,77.49H39.64c-1.92,0-3.48-1.56-3.48-3.48s1.56-3.48,3.48-3.48h106.69c1.92,0,3.48,1.56,3.48,3.48s-1.56,3.48-3.48,3.48Z"/><path class="cls-1" d="m210.35,77.49h-50.26c-1.92,0-3.48-1.56-3.48-3.48s1.56-3.48,3.48-3.48h50.26c1.92,0,3.48,1.56,3.48,3.48s-1.56,3.48-3.48,3.48Z"/><path class="cls-1" d="m112.2,57.1H39.64c-1.92,0-3.48-1.56-3.48-3.48s1.56-3.48,3.48-3.48h72.55c1.92,0,3.48,1.56,3.48,3.48s-1.56,3.48-3.48,3.48Z"/><path class="cls-1" d="m210.35,57.1h-28.45c-1.92,0-3.48-1.56-3.48-3.48s1.56-3.48,3.48-3.48h28.45c1.92,0,3.48,1.56,3.48,3.48s-1.56,3.48-3.48,3.48Z"/><path class="cls-1" d="m166.26,57.1h-38.41c-1.92,0-3.48-1.56-3.48-3.48s1.56-3.48,3.48-3.48h38.41c1.92,0,3.48,1.56,3.48,3.48s-1.56,3.48-3.48,3.48Z"/></svg>