<?xml version="1.0" encoding="UTF-8"?><svg id="Layer_3" xmlns="http://www.w3.org/2000/svg" viewBox="0 0 250 250"><defs><style>.cls-1{stroke-width:7.15px;}.cls-1,.cls-2,.cls-3,.cls-4,.cls-5,.cls-6{stroke:#7b8092;}.cls-1,.cls-2,.cls-3,.cls-4,.cls-6{stroke-linecap:round;stroke-linejoin:round;}.cls-1,.cls-2,.cls-4,.cls-5{fill:none;}.cls-2,.cls-6{stroke-width:7.35px;}.cls-7{fill:#7b8092;}.cls-3,.cls-4,.cls-5{stroke-width:9.8px;}.cls-3,.cls-6{fill:#fff;}.cls-5{stroke-miterlimit:10;}</style></defs><rect class="cls-5" x="47.84" y="24.9" width="154.32" height="14.2" rx="7.1" ry="7.1"/><rect class="cls-1" x="111.16" y="38.34" width="28.04" height="139.1"/><circle class="cls-3" cx="125" cy="31.48" r="21.48"/><circle class="cls-7" cx="125" cy="31.48" r="6.86"/><rect class="cls-2" x="104.59" y="66.24" width="40.65" height="14.03" rx="7.02" ry="7.02"/><path class="cls-2" d="m173.11,184.59c0-3.92-3.17-7.09-7.09-7.09h-81.69c-3.92,0-7.09,3.17-7.09,7.09s3.13,7.03,7,7.08v14.04h81.87v-14.04c3.87-.05,7-3.2,7-7.08Z"/><line class="cls-2" x1="97.71" y1="191.68" x2="166.11" y2="191.67"/><path class="cls-4" d="m216.71,225.87h0c-4.63,0-8.91-2.47-11.22-6.48l-5.76-9.98c-1.32-2.29-3.77-3.7-6.41-3.7H58.11c-2.65,0-5.09,1.41-6.41,3.7l-5.76,9.98c-2.31,4.01-6.59,6.48-11.22,6.48h0c-7.81,0-14.13,6.33-14.13,14.13h210.25c0-7.8-6.33-14.13-14.13-14.13Z"/><circle class="cls-6" cx="195.59" cy="45.88" r="7.24"/><path class="cls-4" d="m152.46,143.33h86.26c0,11.59-9.41,21.01-21.01,21.01h-44.25c-11.59,0-21.01-9.41-21.01-21.01h0Z"/><polygon class="cls-2" points="195.59 53.12 152.46 143.33 238.72 143.33 195.59 53.12"/><circle class="cls-6" cx="54.41" cy="45.88" r="7.24"/><path class="cls-4" d="m11.28,143.33h86.26c0,11.59-9.41,21.01-21.01,21.01h-44.25c-11.59,0-21.01-9.41-21.01-21.01h0Z"/><polygon class="cls-2" points="54.41 53.12 11.28 143.33 97.54 143.33 54.41 53.12"/><path class="cls-2" d="m34.72,225.87h181.99c7.8,0,14.13,6.33,14.13,14.13H20.59c0-7.8,6.33-14.13,14.13-14.13Z"/></svg>