<?xml version="1.0" encoding="UTF-8"?><svg id="Layer_3" xmlns="http://www.w3.org/2000/svg" viewBox="0 0 250 250"><defs><style>.cls-1{stroke-width:12px;}.cls-1,.cls-2{fill:none;stroke:#7b8092;stroke-miterlimit:10;}.cls-2{stroke-width:15px;}</style></defs><path class="cls-2" d="m223.38,163.25l-23.4-66.57c0-47.87-38.81-86.68-86.68-86.68S26.62,48.81,26.62,96.68c0,26.61,12,50.4,30.87,66.3v77.02h97.87v-42.09h44.5s.02-15.66.04-34.66h23.47Z"/><path class="cls-1" d="m154.04,78.17c0-.12.02-.24.02-.37,0-16.27-13.19-29.46-29.46-29.46-6.96,0-13.34,2.43-18.39,6.46-1.62-.27-3.27-.45-4.96-.45-14.36,0-26.3,10.28-28.92,23.87-9.02,1.89-15.8,9.89-15.8,19.47h0c0,10.99,8.91,19.9,19.9,19.9h73.81c10.99,0,19.9-8.91,19.9-19.9h0c0-9.69-6.93-17.75-16.1-19.53Z"/></svg>