<?xml version="1.0" encoding="UTF-8"?><svg id="Layer_1" xmlns="http://www.w3.org/2000/svg" viewBox="0 0 300 34"><defs><style>.cls-1{fill:#fff;}</style></defs><path class="cls-1" d="m71.98,22.87c-2.66,2.62-5.8,3.15-9.7,3.15H28.83c-2.66,0-5.02-2.15-6.13-5.18h-8.69c1.58,7.31,7.62,12.77,14.82,12.77h33.45c4.76,0,10.87-.64,15.93-5.62l5.48-5.39-5.72-5.63c-3.27,3.21-5.99,5.89-5.99,5.89Z"/><path class="cls-1" d="m28.83,8.07h21.8c.96,0,2.03,1.06,2.03,2.59s-1.07,2.59-2.03,2.59h-27.93c-.42,1.16-.66,2.45-.66,3.8s.24,2.64.66,3.8h27.93c5.77,0,10.47-4.57,10.47-10.19S56.4.48,50.63.48h-21.8c-7.2,0-13.24,5.46-14.82,12.78h8.69c1.1-3.03,3.47-5.18,6.13-5.18Z"/><path class="cls-1" d="m22.03,17.05c0-1.35.24-2.63.66-3.8h-8.69c-.26,1.22-.41,2.49-.41,3.8s.15,2.58.41,3.8h8.69c-.42-1.16-.66-2.45-.66-3.8Z"/><path class="cls-1" d="m14.01,13.25H4.51c-2.33,0-4.22,1.7-4.22,3.8s1.89,3.8,4.22,3.8h9.49c-.26-1.22-.41-2.49-.41-3.8s.15-2.57.41-3.8Z"/><path class="cls-1" d="m95.25,11.22c2.66-2.62,5.8-3.15,9.71-3.15h2.78c2.33,0,4.22-1.7,4.22-3.8s-1.89-3.8-4.22-3.8h-2.78c-4.76,0-10.87.64-15.93,5.62,0,0-2.37,2.33-5.34,5.26l5.71,5.63,5.85-5.76Z"/><path class="cls-1" d="m77.66,5.44c-2.41-2.37-5.41-4.19-8.74-4.85-2.27-.45-4.57.62-5.19,2.64-.62,2.02.69,4.11,2.94,4.68,1.89.47,3.41,1.32,4.77,2.66l6.53,6.42c1.86-1.83,3.9-3.84,5.72-5.63l-6.03-5.91Z"/><path class="cls-1" d="m107.78,25.96h-2.78c-3.9,0-7.04-.54-9.7-3.15l-5.9-5.83-5.71,5.63,5.39,5.32c5.06,4.98,11.17,5.62,15.93,5.62h2.78c2.33,0,4.22-1.7,4.22-3.8s-1.89-3.8-4.22-3.8Z"/><path class="cls-1" d="m83.68,11.36c-1.82,1.79-3.85,3.79-5.72,5.63l5.72,5.63,5.71-5.63-5.71-5.63Z"/><polygon class="cls-1" points="296.7 1.46 292.37 1.46 292.37 32.27 296.7 32.27 296.7 13.87 300.3 13.87 300.3 10.88 296.7 10.88 296.7 1.46"/><path class="cls-1" d="m283.24,8.07V1.71h-4.33v6.36c0,5.2-2.08,9.52-6.93,12.54l1.9,2.45c3.21-1.69,5.62-4.24,7.19-7,1.57,2.76,3.97,5.31,7.18,7l1.91-2.45c-4.86-3.03-6.93-7.34-6.93-12.54Z"/><polygon class="cls-1" points="153.14 9.53 153.14 1.46 148.81 1.46 148.81 23.89 153.14 23.89 153.14 12.52 156.74 12.52 156.74 9.53 153.14 9.53"/><path class="cls-1" d="m144.97,11.72c0-2.35-1.11-4.32-2.84-5.62h3.03v-2.99h-6.06V.38h-4.33v2.73h-6.06v2.99h3.13c-1.73,1.29-2.84,3.27-2.84,5.62,0,4.23,3.57,7.66,7.98,7.66s7.98-3.43,7.98-7.66Zm-11.63,0c0-2.63,1.63-4.77,3.65-4.77s3.65,2.13,3.65,4.77-1.64,4.77-3.65,4.77-3.65-2.13-3.65-4.77Z"/><path class="cls-1" d="m153.37,32.17v-2.99h-16.23v-6.69h-4.33v7.13c0,1.32,1.04,2.55,2.72,2.55h17.84Z"/><path class="cls-1" d="m190.96,1.87v13.56c0,1.33,1.05,2.56,2.72,2.56h5.56v9.01h-9.88v2.99h24.09v-2.99h-9.88v-9.01h7.8v-3h-16.09V4.86h16.09V1.87h-20.42Z"/><path class="cls-1" d="m174.18,20.68v-5.17h10.34v-2.99h-2.18V4.43c0-1.33-1.05-2.56-2.73-2.56h-18.58v2.99h16.98v7.65h-18.5v2.99h10.34v5.17h-8.82v3h16.98v8.59h4.33v-11.59h-8.16Z"/><path class="cls-1" d="m218.82,17.26c0,1.33,1.04,2.56,2.72,2.56h5.79v7.19h-10.11v2.99h24.55v-2.99h-10.11v-7.19h8.03v-2.99h-16.55v-4.27h16.55V4.43c0-1.33-1.05-2.56-2.72-2.56h-18.15v2.99h16.55v4.69h-16.55v7.7Z"/><path class="cls-1" d="m246.98,1.87v2.99h16.75v9.83h-6.04v-5.82h-4.33v5.82h-8.58v2.99h25.92v-2.99h-2.64V4.43c0-1.33-1.05-2.56-2.72-2.56h-18.36Z"/><path class="cls-1" d="m257.6,19.3c-5.12,0-9.27,3.18-9.27,7.11s4.15,7.11,9.27,7.11,9.27-3.18,9.27-7.11-4.15-7.11-9.27-7.11Zm0,11.3c-2.73,0-4.94-1.88-4.94-4.19s2.21-4.19,4.94-4.19,4.94,1.88,4.94,4.19-2.21,4.19-4.94,4.19Z"/></svg>